<svg xmlns="http://www.w3.org/2000/svg" viewBox="0 0 841.9 595.3">
  <g fill="#61DAFB">
    <path d="M666.3 296.5c0-34.6-21.2-62.7-52.5-72.8 7.7-49.1-3.3-106.2-38.3-156.7-38.3-56.4-93.3-92.5-148.3-92.5-22.7 0-45.2 6.8-66.5 19.6C337.4 24.4 283.4 86 245 148.2c-35 50.5-46 107.6-38.3 156.7-31.3 10-52.5 38.1-52.5 72.8s21.2 62.7 52.5 72.8c-7.7 49.1 3.3 106.2 38.3 156.7 38.3 56.4 93.3 92.5 148.3 92.5 22.7 0 45.2-6.8 66.5-19.6 37.4 44.8 91.4 106.4 129.8 168.6 35 50.5 46 107.6 38.3 156.7 31.3 10 52.5 38.1 52.5 72.8 0 34.6-21.2 62.7-52.5 72.8-7.7-49.1 3.3-106.2 38.3-156.7 38.3-56.4 93.3-92.5 148.3-92.5 22.7 0 45.2 6.8 66.5 19.6 37.4-44.8 91.4-106.4 129.8-168.6 35-50.5 46-107.6 38.3-156.7 31.3-10 52.5-38.1 52.5-72.8zm-297.4 140.2c-39.3-69.2-72.8-141.8-98.3-216.8 25.5-75 59-147.6 98.3-216.8 39.3 69.2 72.8 141.8 98.3 216.8-25.5 75-59 147.6-98.3 216.8z"/>
    <circle cx="420.9" cy="296.5" r="45.7"/>
    <path d="M520.5 78.1c20.6 0 38.9 4.3 54.8 12.5-34.1 33.8-67.4 73.2-99.5 117.5-26.6 36.9-50.4 74.8-71.4 112.5-21-37.7-44.8-75.6-71.4-112.5-32.1-44.3-65.4-83.7-99.5-117.5 15.9-8.2 34.2-12.5 54.8-12.5 54.5 0 108.4 26.4 156.2 72.5 47.8-46.1 101.7-72.5 156.2-72.5zM520.5 515.1c-20.6 0-38.9-4.3-54.8-12.5 34.1-33.8 67.4-73.2 99.5-117.5 26.6-36.9 50.4-74.8 71.4-112.5 21 37.7 44.8 75.6 71.4 112.5 32.1 44.3 65.4 83.7 99.5 117.5-15.9 8.2-34.2 12.5-54.8 12.5-54.5 0-108.4-26.4-156.2-72.5-47.8 46.1-101.7 72.5-156.2 72.5z"/>
  </g>
</svg>
